<mxfile host="app.diagrams.net" agent="Mozilla/5.0 (Windows NT 10.0; Win64; x64) AppleWebKit/537.36 (KHTML, like Gecko) Chrome/138.0.0.0 YaBrowser/25.8.0.0 Safari/537.36" version="28.2.5">
  <diagram name="Страница — 1" id="o19X6w5X98byrp_oOMTv">
    <mxGraphModel dx="138660" dy="97791" grid="1" gridSize="10" guides="1" tooltips="1" connect="1" arrows="1" fold="1" page="1" pageScale="1" pageWidth="827" pageHeight="1169" math="0" shadow="0">
      <root>
        <mxCell id="0" />
        <mxCell id="1" parent="0" />
        <mxCell id="s4BA8HYlkkgSVktyjIVV-5" value="" style="endArrow=classic;html=1;rounded=0;exitX=1;exitY=0.5;exitDx=0;exitDy=0;entryX=0;entryY=0.5;entryDx=0;entryDy=0;" parent="1" edge="1" />
        <mxCell id="s4BA8HYlkkgSVktyjIVV-11" value="Источник" style="rounded=1;whiteSpace=wrap;html=1;" parent="1" vertex="1">
          <mxGeometry x="120" y="80" width="120" height="60" as="geometry" />
        </mxCell>
        <mxCell id="s4BA8HYlkkgSVktyjIVV-12" value="Приёмник" style="rounded=1;whiteSpace=wrap;html=1;" parent="1" vertex="1">
          <mxGeometry x="340" y="80" width="120" height="60" as="geometry" />
        </mxCell>
        <mxCell id="s4BA8HYlkkgSVktyjIVV-13" value="" style="endArrow=classic;html=1;rounded=0;exitX=1;exitY=0.5;exitDx=0;exitDy=0;entryX=0;entryY=0.5;entryDx=0;entryDy=0;" parent="1" source="s4BA8HYlkkgSVktyjIVV-11" target="s4BA8HYlkkgSVktyjIVV-12" edge="1">
          <mxGeometry width="50" height="50" relative="1" as="geometry">
            <mxPoint x="240" y="260" as="sourcePoint" />
            <mxPoint x="290" y="210" as="targetPoint" />
          </mxGeometry>
        </mxCell>
        <mxCell id="s4BA8HYlkkgSVktyjIVV-14" value="Приёмник 2" style="rounded=1;whiteSpace=wrap;html=1;" parent="1" vertex="1">
          <mxGeometry x="640" y="80" width="120" height="60" as="geometry" />
        </mxCell>
        <mxCell id="s4BA8HYlkkgSVktyjIVV-15" value="" style="endArrow=classic;html=1;rounded=0;exitX=1;exitY=0.5;exitDx=0;exitDy=0;entryX=0;entryY=0.5;entryDx=0;entryDy=0;" parent="1" source="s4BA8HYlkkgSVktyjIVV-11" target="s4BA8HYlkkgSVktyjIVV-14" edge="1">
          <mxGeometry width="50" height="50" relative="1" as="geometry">
            <mxPoint x="240" y="260" as="sourcePoint" />
            <mxPoint x="290" y="210" as="targetPoint" />
          </mxGeometry>
        </mxCell>
        <mxCell id="s4BA8HYlkkgSVktyjIVV-16" value="Источник" style="rounded=1;whiteSpace=wrap;html=1;" parent="1" vertex="1">
          <mxGeometry x="145" y="95" width="70" height="30" as="geometry" />
        </mxCell>
        <mxCell id="s4BA8HYlkkgSVktyjIVV-17" value="Приёмник" style="rounded=1;whiteSpace=wrap;html=1;" parent="1" vertex="1">
          <mxGeometry x="360" y="95" width="80" height="30" as="geometry" />
        </mxCell>
        <mxCell id="s4BA8HYlkkgSVktyjIVV-18" value="" style="endArrow=classic;html=1;rounded=0;exitX=1;exitY=0.5;exitDx=0;exitDy=0;entryX=0;entryY=0.5;entryDx=0;entryDy=0;" parent="1" source="s4BA8HYlkkgSVktyjIVV-16" target="s4BA8HYlkkgSVktyjIVV-17" edge="1">
          <mxGeometry width="50" height="50" relative="1" as="geometry">
            <mxPoint x="240" y="260" as="sourcePoint" />
            <mxPoint x="290" y="210" as="targetPoint" />
          </mxGeometry>
        </mxCell>
        <mxCell id="s4BA8HYlkkgSVktyjIVV-19" value="Приёмник 2" style="rounded=1;whiteSpace=wrap;html=1;" parent="1" vertex="1">
          <mxGeometry x="655" y="95" width="90" height="30" as="geometry" />
        </mxCell>
        <mxCell id="s4BA8HYlkkgSVktyjIVV-20" value="" style="endArrow=classic;html=1;rounded=0;exitX=1;exitY=0.5;exitDx=0;exitDy=0;entryX=0;entryY=0.5;entryDx=0;entryDy=0;" parent="1" source="s4BA8HYlkkgSVktyjIVV-16" target="s4BA8HYlkkgSVktyjIVV-19" edge="1">
          <mxGeometry width="50" height="50" relative="1" as="geometry">
            <mxPoint x="240" y="260" as="sourcePoint" />
            <mxPoint x="290" y="210" as="targetPoint" />
          </mxGeometry>
        </mxCell>
        <mxCell id="N_Q96QRwgAl9k644JnkO-1" value="Pipeline H1" style="shape=cylinder3;whiteSpace=wrap;html=1;boundedLbl=1;backgroundOutline=1;size=15;" vertex="1" parent="1">
          <mxGeometry x="-3220" y="-2040" width="60" height="80" as="geometry" />
        </mxCell>
        <mxCell id="N_Q96QRwgAl9k644JnkO-2" value="Pipeline D" style="shape=cylinder3;whiteSpace=wrap;html=1;boundedLbl=1;backgroundOutline=1;size=15;" vertex="1" parent="1">
          <mxGeometry x="-3220" y="-1930" width="60" height="80" as="geometry" />
        </mxCell>
        <mxCell id="N_Q96QRwgAl9k644JnkO-3" value="GetCandleData.py&lt;div&gt;&lt;br&gt;&lt;/div&gt;&lt;div&gt;GetCandleDataV2&lt;/div&gt;" style="rounded=0;whiteSpace=wrap;html=1;" vertex="1" parent="1">
          <mxGeometry x="-3060" y="-2060" width="120" height="240" as="geometry" />
        </mxCell>
        <mxCell id="N_Q96QRwgAl9k644JnkO-4" value="" style="endArrow=classic;html=1;rounded=0;entryX=0;entryY=0.25;entryDx=0;entryDy=0;exitX=1;exitY=0.5;exitDx=0;exitDy=0;exitPerimeter=0;" edge="1" parent="1" source="N_Q96QRwgAl9k644JnkO-1" target="N_Q96QRwgAl9k644JnkO-3">
          <mxGeometry width="50" height="50" relative="1" as="geometry">
            <mxPoint x="-3220" y="-1670" as="sourcePoint" />
            <mxPoint x="-3170" y="-1720" as="targetPoint" />
          </mxGeometry>
        </mxCell>
        <mxCell id="N_Q96QRwgAl9k644JnkO-5" value="" style="endArrow=classic;html=1;rounded=0;exitX=1;exitY=0.5;exitDx=0;exitDy=0;exitPerimeter=0;entryX=0;entryY=0.711;entryDx=0;entryDy=0;entryPerimeter=0;" edge="1" parent="1" source="N_Q96QRwgAl9k644JnkO-2" target="N_Q96QRwgAl9k644JnkO-3">
          <mxGeometry width="50" height="50" relative="1" as="geometry">
            <mxPoint x="-3130" y="-1490" as="sourcePoint" />
            <mxPoint x="-3060" y="-1890" as="targetPoint" />
          </mxGeometry>
        </mxCell>
        <mxCell id="N_Q96QRwgAl9k644JnkO-7" value="" style="endArrow=classic;html=1;rounded=0;entryX=0.5;entryY=0;entryDx=0;entryDy=0;exitX=0.5;exitY=1;exitDx=0;exitDy=0;" edge="1" parent="1" source="N_Q96QRwgAl9k644JnkO-8" target="N_Q96QRwgAl9k644JnkO-3">
          <mxGeometry width="50" height="50" relative="1" as="geometry">
            <mxPoint x="-2970" y="-2140" as="sourcePoint" />
            <mxPoint x="-2580" y="-2070" as="targetPoint" />
          </mxGeometry>
        </mxCell>
        <mxCell id="N_Q96QRwgAl9k644JnkO-8" value="&lt;div style=&quot;box-sizing: border-box; width: 100%; background: rgb(228, 228, 228); padding: 2px;&quot;&gt;SecurityList&lt;/div&gt;&lt;table style=&quot;width:100%;font-size:1em;&quot; cellpadding=&quot;2&quot; cellspacing=&quot;0&quot;&gt;&lt;tbody&gt;&lt;tr&gt;&lt;td&gt;PK&lt;/td&gt;&lt;td&gt;Securitiy, Board, Timeframe&lt;/td&gt;&lt;/tr&gt;&lt;tr&gt;&lt;td&gt;&lt;br&gt;&lt;/td&gt;&lt;td&gt;&lt;br&gt;&lt;/td&gt;&lt;/tr&gt;&lt;tr&gt;&lt;td&gt;&lt;/td&gt;&lt;td&gt;Active = 1&lt;/td&gt;&lt;/tr&gt;&lt;/tbody&gt;&lt;/table&gt;" style="verticalAlign=top;align=left;overflow=fill;html=1;whiteSpace=wrap;" vertex="1" parent="1">
          <mxGeometry x="-3090" y="-2260" width="180" height="90" as="geometry" />
        </mxCell>
        <mxCell id="N_Q96QRwgAl9k644JnkO-11" value="API" style="ellipse;shape=cloud;whiteSpace=wrap;html=1;" vertex="1" parent="1">
          <mxGeometry x="-3060" y="-1580" width="120" height="80" as="geometry" />
        </mxCell>
        <mxCell id="N_Q96QRwgAl9k644JnkO-12" value="" style="endArrow=classic;startArrow=classic;html=1;rounded=0;entryX=0.5;entryY=1;entryDx=0;entryDy=0;" edge="1" parent="1" source="N_Q96QRwgAl9k644JnkO-11" target="N_Q96QRwgAl9k644JnkO-15">
          <mxGeometry width="50" height="50" relative="1" as="geometry">
            <mxPoint x="-3050" y="-1770" as="sourcePoint" />
            <mxPoint x="-2970" y="-1790" as="targetPoint" />
          </mxGeometry>
        </mxCell>
        <mxCell id="N_Q96QRwgAl9k644JnkO-13" value="Load ALL candles" style="edgeLabel;html=1;align=center;verticalAlign=middle;resizable=0;points=[];" vertex="1" connectable="0" parent="N_Q96QRwgAl9k644JnkO-12">
          <mxGeometry x="0.1" y="-2" relative="1" as="geometry">
            <mxPoint as="offset" />
          </mxGeometry>
        </mxCell>
        <mxCell id="N_Q96QRwgAl9k644JnkO-14" value="&lt;h1 style=&quot;margin-top: 0px;&quot;&gt;&lt;span style=&quot;text-align: center;&quot;&gt;&lt;font style=&quot;font-size: 16px;&quot;&gt;LoadCandels()&lt;/font&gt;&lt;/span&gt;&lt;/h1&gt;&lt;div style=&quot;&quot;&gt;&lt;font style=&quot;font-size: 13px;&quot;&gt;Каждый раз грузит ВСЕ свечки, за весь указанный период&lt;/font&gt;&lt;/div&gt;" style="text;html=1;whiteSpace=wrap;overflow=hidden;rounded=0;" vertex="1" parent="1">
          <mxGeometry x="-3260" y="-1750" width="180" height="120" as="geometry" />
        </mxCell>
        <mxCell id="N_Q96QRwgAl9k644JnkO-15" value="MarketMgt.py&lt;div&gt;LoadCandels()&lt;/div&gt;" style="rounded=1;whiteSpace=wrap;html=1;" vertex="1" parent="1">
          <mxGeometry x="-3060" y="-1720" width="120" height="60" as="geometry" />
        </mxCell>
        <mxCell id="N_Q96QRwgAl9k644JnkO-16" value="" style="endArrow=classic;startArrow=classic;html=1;rounded=0;entryX=0.5;entryY=1;entryDx=0;entryDy=0;exitX=0.5;exitY=0;exitDx=0;exitDy=0;" edge="1" parent="1" source="N_Q96QRwgAl9k644JnkO-15" target="N_Q96QRwgAl9k644JnkO-3">
          <mxGeometry width="50" height="50" relative="1" as="geometry">
            <mxPoint x="-3150" y="-1700" as="sourcePoint" />
            <mxPoint x="-3100" y="-1750" as="targetPoint" />
          </mxGeometry>
        </mxCell>
      </root>
    </mxGraphModel>
  </diagram>
</mxfile>
